<svg xmlns="http://www.w3.org/2000/svg" viewBox="0 0 400 400" width="400" height="400">
  <rect width="400" height="400" fill="#1a1a2e" rx="12"/>
  <rect x="10.00" y="10.00" width="48.10" height="48.10" rx="8.66" ry="8.66" fill="white"/>
  <rect x="65.32" y="10.00" width="48.10" height="48.10" rx="8.66" ry="8.66" fill="white"/>
  <rect x="120.63" y="10.00" width="48.10" height="48.10" rx="8.66" ry="8.66" fill="white"/>
  <rect x="175.95" y="10.00" width="48.10" height="48.10" rx="8.66" ry="8.66" fill="white"/>
  <rect x="231.27" y="10.00" width="48.10" height="48.10" rx="8.66" ry="8.66" fill="white"/>
  <rect x="286.58" y="10.00" width="48.10" height="48.10" rx="8.66" ry="8.66" fill="white"/>
  <rect x="341.90" y="10.00" width="48.10" height="48.10" rx="8.66" ry="8.66" fill="white"/>
  <rect x="10.00" y="65.32" width="48.10" height="48.10" rx="8.66" ry="8.66" fill="white"/>
  <rect x="65.32" y="65.32" width="48.10" height="48.10" rx="8.66" ry="8.66" fill="white"/>
  <rect x="120.63" y="65.32" width="48.10" height="48.10" rx="8.66" ry="8.66" fill="white"/>
  <rect x="175.95" y="65.32" width="48.10" height="48.10" rx="8.66" ry="8.66" fill="white"/>
  <rect x="231.27" y="65.32" width="48.10" height="48.10" rx="8.66" ry="8.66" fill="white"/>
  <rect x="286.58" y="65.32" width="48.10" height="48.10" rx="8.66" ry="8.66" fill="white"/>
  <rect x="341.90" y="65.32" width="48.10" height="48.10" rx="8.66" ry="8.66" fill="white"/>
  <rect x="10.00" y="120.63" width="48.10" height="48.10" rx="8.66" ry="8.66" fill="white"/>
  <rect x="65.32" y="120.63" width="48.10" height="48.10" rx="8.66" ry="8.66" fill="white"/>
  <rect x="120.63" y="120.63" width="48.10" height="48.10" rx="8.66" ry="8.66" fill="white"/>
  <rect x="175.95" y="120.63" width="48.10" height="48.10" rx="8.66" ry="8.66" fill="white"/>
  <rect x="231.27" y="120.63" width="48.10" height="48.10" rx="8.66" ry="8.66" fill="white"/>
  <rect x="286.58" y="120.63" width="48.10" height="48.10" rx="8.66" ry="8.66" fill="white"/>
  <rect x="341.90" y="120.63" width="48.10" height="48.10" rx="8.66" ry="8.66" fill="white"/>
  <rect x="10.00" y="175.95" width="48.10" height="48.10" rx="8.66" ry="8.66" fill="white"/>
  <rect x="65.32" y="175.95" width="48.10" height="48.10" rx="8.66" ry="8.66" fill="white"/>
  <rect x="120.63" y="175.95" width="48.10" height="48.10" rx="8.66" ry="8.66" fill="white"/>
  <rect x="175.95" y="175.95" width="48.10" height="48.10" rx="8.66" ry="8.66" fill="white"/>
  <rect x="231.27" y="175.95" width="48.10" height="48.10" rx="8.66" ry="8.66" fill="white"/>
  <rect x="286.58" y="175.95" width="48.10" height="48.10" rx="8.66" ry="8.66" fill="white"/>
  <rect x="341.90" y="175.95" width="48.10" height="48.10" rx="8.66" ry="8.66" fill="white"/>
  <rect x="10.00" y="231.27" width="48.10" height="48.10" rx="8.66" ry="8.66" fill="white"/>
  <rect x="65.32" y="231.27" width="48.10" height="48.10" rx="8.66" ry="8.66" fill="white"/>
  <rect x="120.63" y="231.27" width="48.10" height="48.10" rx="8.66" ry="8.66" fill="white"/>
  <rect x="175.95" y="231.27" width="48.10" height="48.10" rx="8.66" ry="8.66" fill="white"/>
  <rect x="231.27" y="231.27" width="48.10" height="48.10" rx="8.66" ry="8.66" fill="white"/>
  <rect x="286.58" y="231.27" width="48.10" height="48.10" rx="8.66" ry="8.66" fill="white"/>
  <rect x="341.90" y="231.27" width="48.10" height="48.10" rx="8.66" ry="8.66" fill="white"/>
  <rect x="10.00" y="286.58" width="48.10" height="48.10" rx="8.66" ry="8.66" fill="white"/>
  <rect x="65.32" y="286.58" width="48.10" height="48.10" rx="8.66" ry="8.66" fill="white"/>
  <rect x="120.63" y="286.58" width="48.10" height="48.10" rx="8.66" ry="8.66" fill="white"/>
  <rect x="175.95" y="286.58" width="48.10" height="48.10" rx="8.66" ry="8.66" fill="white"/>
  <rect x="231.27" y="286.58" width="48.10" height="48.10" rx="8.66" ry="8.66" fill="white"/>
  <rect x="286.58" y="286.58" width="48.10" height="48.10" rx="8.66" ry="8.66" fill="white"/>
  <rect x="341.90" y="286.58" width="48.10" height="48.10" rx="8.66" ry="8.66" fill="white"/>
  <rect x="10.00" y="341.90" width="48.10" height="48.10" rx="8.66" ry="8.66" fill="white"/>
  <rect x="65.32" y="341.90" width="48.10" height="48.10" rx="8.66" ry="8.66" fill="white"/>
  <rect x="120.63" y="341.90" width="48.10" height="48.10" rx="8.66" ry="8.66" fill="white"/>
  <rect x="175.95" y="341.90" width="48.10" height="48.10" rx="8.66" ry="8.66" fill="white"/>
  <rect x="231.27" y="341.90" width="48.10" height="48.10" rx="8.66" ry="8.66" fill="white"/>
  <rect x="286.58" y="341.90" width="48.10" height="48.10" rx="8.66" ry="8.66" fill="white"/>
  <rect x="341.90" y="341.90" width="48.10" height="48.10" rx="8.66" ry="8.66" fill="white"/>
</svg>