<svg xmlns="http://www.w3.org/2000/svg" viewBox="0 0 400 400" width="400" height="400">
  <rect width="400" height="400" fill="#1a1a2e" rx="12"/>
  <rect x="10.00" y="10.00" width="56.30" height="56.30" rx="10.13" ry="10.13" fill="white"/>
  <rect x="74.74" y="10.00" width="56.30" height="56.30" rx="10.13" ry="10.13" fill="white"/>
  <rect x="139.48" y="10.00" width="56.30" height="56.30" rx="10.13" ry="10.13" fill="white"/>
  <rect x="204.22" y="10.00" width="56.30" height="56.30" rx="10.13" ry="10.13" fill="white"/>
  <rect x="268.96" y="10.00" width="56.30" height="56.30" rx="10.13" ry="10.13" fill="white"/>
  <rect x="333.70" y="10.00" width="56.30" height="56.30" rx="10.13" ry="10.13" fill="white"/>
  <rect x="10.00" y="74.74" width="56.30" height="56.30" rx="10.13" ry="10.13" fill="white"/>
  <rect x="74.74" y="74.74" width="56.30" height="56.30" rx="10.13" ry="10.13" fill="white"/>
  <rect x="139.48" y="74.74" width="56.30" height="56.30" rx="10.13" ry="10.13" fill="white"/>
  <rect x="204.22" y="74.74" width="56.30" height="56.30" rx="10.13" ry="10.13" fill="white"/>
  <rect x="268.96" y="74.74" width="56.30" height="56.30" rx="10.13" ry="10.13" fill="white"/>
  <rect x="333.70" y="74.74" width="56.30" height="56.30" rx="10.13" ry="10.13" fill="white"/>
  <rect x="10.00" y="139.48" width="56.30" height="56.30" rx="10.13" ry="10.13" fill="white"/>
  <rect x="74.74" y="139.48" width="56.30" height="56.30" rx="10.13" ry="10.13" fill="white"/>
  <rect x="139.48" y="139.48" width="56.30" height="56.30" rx="10.13" ry="10.13" fill="white"/>
  <rect x="204.22" y="139.48" width="56.30" height="56.30" rx="10.13" ry="10.13" fill="white"/>
  <rect x="268.96" y="139.48" width="56.30" height="56.30" rx="10.13" ry="10.13" fill="white"/>
  <rect x="333.70" y="139.48" width="56.30" height="56.30" rx="10.13" ry="10.13" fill="white"/>
  <rect x="10.00" y="204.22" width="56.30" height="56.30" rx="10.13" ry="10.13" fill="white"/>
  <rect x="74.74" y="204.22" width="56.30" height="56.30" rx="10.13" ry="10.13" fill="white"/>
  <rect x="139.48" y="204.22" width="56.30" height="56.30" rx="10.13" ry="10.13" fill="white"/>
  <rect x="204.22" y="204.22" width="56.30" height="56.30" rx="10.13" ry="10.13" fill="white"/>
  <rect x="268.96" y="204.22" width="56.30" height="56.30" rx="10.13" ry="10.13" fill="white"/>
  <rect x="333.70" y="204.22" width="56.30" height="56.30" rx="10.13" ry="10.13" fill="white"/>
  <rect x="10.00" y="268.96" width="56.30" height="56.30" rx="10.13" ry="10.13" fill="white"/>
  <rect x="74.74" y="268.96" width="56.30" height="56.30" rx="10.13" ry="10.13" fill="white"/>
  <rect x="139.48" y="268.96" width="56.30" height="56.30" rx="10.13" ry="10.13" fill="white"/>
  <rect x="204.22" y="268.96" width="56.30" height="56.30" rx="10.13" ry="10.13" fill="white"/>
  <rect x="268.96" y="268.96" width="56.30" height="56.30" rx="10.13" ry="10.13" fill="white"/>
  <rect x="333.70" y="268.96" width="56.30" height="56.30" rx="10.13" ry="10.13" fill="white"/>
  <rect x="10.00" y="333.70" width="56.30" height="56.30" rx="10.13" ry="10.13" fill="white"/>
  <rect x="74.74" y="333.70" width="56.30" height="56.30" rx="10.13" ry="10.13" fill="white"/>
  <rect x="139.48" y="333.70" width="56.30" height="56.30" rx="10.13" ry="10.13" fill="white"/>
  <rect x="204.22" y="333.70" width="56.30" height="56.30" rx="10.13" ry="10.13" fill="white"/>
  <rect x="268.96" y="333.70" width="56.30" height="56.30" rx="10.13" ry="10.13" fill="white"/>
  <rect x="333.70" y="333.70" width="56.30" height="56.30" rx="10.13" ry="10.13" fill="white"/>
</svg>